<?xml version="1.0" standalone="no"?>
<svg xmlns="http://www.w3.org/2000/svg" viewBox="0 0 1440 320">
    <path fill="#ffffff" fill-opacity="1"
          d="M0,96L20,80C40,64,80,32,120,16C160,0,200,0,240,32C280,64,320,128,360,144C400,160,440,128,480,128C520,128,560,160,600,160C640,160,680,128,720,128C760,128,800,160,840,165.3C880,171,920,149,960,138.7C1000,128,1040,128,1080,149.3C1120,171,1160,213,1200,218.7C1240,224,1280,192,1320,160C1360,128,1400,96,1420,80L1440,64L1440,320L1420,320C1400,320,1360,320,1320,320C1280,320,1240,320,1200,320C1160,320,1120,320,1080,320C1040,320,1000,320,960,320C920,320,880,320,840,320C800,320,760,320,720,320C680,320,640,320,600,320C560,320,520,320,480,320C440,320,400,320,360,320C320,320,280,320,240,320C200,320,160,320,120,320C80,320,40,320,20,320L0,320Z"></path>
</svg>